<svg xmlns="http://www.w3.org/2000/svg" width="24" height="26" viewBox="0 0 24 26" fill="none">
  <path fill-rule="evenodd" clip-rule="evenodd" d="M12 7.99999C14.2091 7.99999 16 6.20913 16 4C16 1.79086 14.2091 0 12 0C9.79086 0 8 1.79086 8 4C8 6.20913 9.79086 7.99999 12 7.99999ZM12 6.49999C13.3807 6.49999 14.5 5.38071 14.5 4C14.5 2.61929 13.3807 1.5 12 1.5C10.6193 1.5 9.5 2.61929 9.5 4C9.5 5.38071 10.6193 6.49999 12 6.49999Z" fill="white"/>
  <path fill-rule="evenodd" clip-rule="evenodd" d="M7.41623 11.5791C8.25835 10.3066 9.69099 9.24999 12 9.24999C14.309 9.24999 15.7417 10.3066 16.5838 11.5791C17.3967 12.8076 17.6388 14.1985 17.714 14.9245C17.7926 15.6825 17.1787 16.25 16.5 16.25H15.4441C19.8323 16.907 23 18.7854 23 21C23 23.7614 18.0751 26 12 26C5.92487 26 1 23.7614 1 21C1 18.7854 4.16765 16.907 8.55587 16.25H7.5C6.82129 16.25 6.20744 15.6825 6.28598 14.9245C6.3612 14.1985 6.60326 12.8076 7.41623 11.5791ZM8.75 17.7376C7.23008 17.9675 5.89652 18.3509 4.84253 18.83C2.95264 19.6891 2.5 20.5692 2.5 21C2.5 21.4308 2.95264 22.3109 4.84253 23.17C6.59701 23.9675 9.12615 24.5 12 24.5C14.8738 24.5 17.403 23.9675 19.1575 23.17C21.0474 22.3109 21.5 21.4308 21.5 21C21.5 20.5692 21.0474 19.6891 19.1575 18.83C18.1035 18.3509 16.7699 17.9675 15.25 17.7376V21C15.25 21.6903 14.6904 22.25 14 22.25H10C9.30964 22.25 8.75 21.6903 8.75 21V17.7376ZM7.82013 14.75H9C9.69036 14.75 10.25 15.3096 10.25 16V20.75H11.25V17.5C11.25 17.0858 11.5858 16.75 12 16.75C12.4142 16.75 12.75 17.0858 12.75 17.5V20.75H13.75V16C13.75 15.3096 14.3096 14.75 15 14.75H16.1799C16.082 14.1065 15.8538 13.1942 15.3329 12.4069C14.744 11.5171 13.7628 10.75 12 10.75C10.2372 10.75 9.25597 11.5171 8.66712 12.4069C8.14617 13.1942 7.91796 14.1065 7.82013 14.75Z" fill="white"/>
</svg>