<svg xmlns="http://www.w3.org/2000/svg" width="31" height="24" viewBox="0 0 31 24" fill="none">
  <path fill-rule="evenodd" clip-rule="evenodd" d="M24.9736 5.4C24.9736 8.38234 22.5795 10.8 19.6262 10.8C16.673 10.8 14.2789 8.38234 14.2789 5.4C14.2789 2.41766 16.673 0 19.6262 0C22.5795 0 24.9736 2.41766 24.9736 5.4ZM23.1912 5.4C23.1912 7.38823 21.5951 9 19.6262 9C17.6574 9 16.0613 7.38823 16.0613 5.4C16.0613 3.41178 17.6574 1.8 19.6262 1.8C21.5951 1.8 23.1912 3.41178 23.1912 5.4Z" fill="white"/>
  <path fill-rule="evenodd" clip-rule="evenodd" d="M13.5659 6C13.5659 8.65097 11.4378 10.8 8.81266 10.8C6.18752 10.8 4.05943 8.65097 4.05943 6C4.05943 3.34903 6.18752 1.2 8.81266 1.2C11.4378 1.2 13.5659 3.34903 13.5659 6ZM11.7834 6C11.7834 7.65685 10.4534 9 8.81266 9C7.17195 9 5.84189 7.65685 5.84189 6C5.84189 4.34315 7.17195 3 8.81266 3C10.4534 3 11.7834 4.34315 11.7834 6Z" fill="white"/>
  <path fill-rule="evenodd" clip-rule="evenodd" d="M30.7276 19.9076C29.1255 16.4307 25.8607 12 19.6262 12C13.3918 12 10.127 16.4307 8.52486 19.9076C7.58367 21.9501 9.20975 24 11.4406 24H27.8119C30.0428 24 31.6688 21.9501 30.7276 19.9076ZM29.1116 20.667C27.6218 17.434 24.8236 13.8 19.6262 13.8C14.4289 13.8 11.6307 17.434 10.1409 20.667C9.96122 21.057 10.0255 21.3778 10.2214 21.6428C10.4403 21.9388 10.8665 22.2 11.4406 22.2H27.8119C28.386 22.2 28.8122 21.9388 29.0311 21.6428C29.227 21.3778 29.2913 21.057 29.1116 20.667Z" fill="white"/>
  <path d="M8.93145 12C9.54933 12 10.0249 12.0411 10.3645 12.0874C10.7557 12.1406 11.0139 12.4828 11.0139 12.8775C11.0139 13.4792 10.4371 13.9155 9.83913 13.8492C9.54749 13.8169 9.24506 13.8 8.93145 13.8C5.26676 13.8 3.15206 16.0811 1.90103 18.4068C1.715 18.7527 1.76485 19.0201 1.93525 19.2558C2.13667 19.5344 2.55568 19.8 3.13178 19.8H5.72827C6.22532 19.8 6.62827 20.2029 6.62827 20.7C6.62827 21.1971 6.22532 21.6 5.72827 21.6H3.13178C0.897826 21.6 -0.731579 19.53 0.334728 17.5476C1.74474 14.9263 4.34574 12 8.93145 12Z" fill="white"/>
</svg>