<svg width="24" height="24" viewBox="0 0 24 24" fill="none" xmlns="http://www.w3.org/2000/svg">
<path d="M5.40355 12.7315C5.77892 13.2801 6.22062 13.7827 6.71771 14.2286C7.4038 15.071 8.16715 16.1205 8.57692 17.0526C8.63519 17.1851 8.69417 17.3332 8.75164 17.4867C8.8186 17.6654 8.88357 17.8514 8.94296 18.0284C9.12398 18.5683 9.63735 18.9474 10.2249 18.9474H14.7751C15.3627 18.9474 15.876 18.5683 16.057 18.0284C16.1673 17.6994 16.297 17.3394 16.4231 17.0526C16.8328 16.1205 17.5962 15.071 18.2823 14.2286C18.7794 13.7827 19.2211 13.2801 19.5964 12.7315C19.6581 12.6666 19.6923 12.6316 19.6923 12.6316H19.6637C20.5096 11.3554 21 9.83828 21 8.21053C21 3.67599 17.1944 0 12.5 0C7.80559 0 4 3.67599 4 8.21053C4 9.83828 4.49038 11.3554 5.33627 12.6316H5.30769C5.30769 12.6316 5.34185 12.6666 5.40355 12.7315Z" fill="white"/>
<path d="M9.23077 22.1053C9.23077 21.7565 9.52353 21.4737 9.88462 21.4737H15.1154C15.4765 21.4737 15.7692 21.7565 15.7692 22.1053C15.7692 23.1517 14.891 24 13.8077 24H11.1923C10.109 24 9.23077 23.1517 9.23077 22.1053Z" fill="white"/>
</svg>
