<svg xmlns="http://www.w3.org/2000/svg" width="19" height="24" viewBox="0 0 19 24" fill="none">
  <path fill-rule="evenodd" clip-rule="evenodd" d="M7.05253 0.0729363C3.49179 0.513039 0.256649 3.96663 0.0206946 7.57983C-0.140399 10.0483 0.639673 12.1217 2.33779 13.7377C2.88096 14.2546 4.42708 15.3199 5.77383 16.1051C8.91155 17.9346 9.54323 18.4848 11.0586 20.7077C12.5769 22.9344 12.832 23.1665 14.3427 23.693C15.7127 24.1707 16.4157 24.1033 17.3642 23.4032C18.1199 22.8454 18.3016 22.5193 18.757 20.9042C19.1613 19.4708 19.1431 19.3775 18.0653 17.3425C16.8546 15.0571 16.8159 14.8558 16.6749 10.1145C16.5508 5.93563 16.5228 5.69035 16.0537 4.69094C14.5432 1.47259 10.8905 -0.401436 7.05253 0.0729363ZM10.922 6.93951C10.6063 7.38259 9.826 7.69232 9.01541 7.69604C8.2522 7.69977 8.01095 7.85305 7.76419 8.49095C7.6554 8.77181 7.37301 9.0767 7.1363 9.16852C6.89977 9.26034 6.42787 9.43764 6.08767 9.56224C5.69082 9.70789 5.42738 9.95373 5.35195 10.2486C5.25283 10.6371 5.45126 10.9245 6.63369 12.1066C7.40315 12.8756 8.61779 14.0052 9.33267 14.6168L10.6326 15.7287L11.0784 15.3171C11.6627 14.7777 11.541 14.5598 9.51518 12.518L7.9268 10.9172L8.64471 10.1679C9.17973 9.60974 9.59516 9.37004 10.275 9.22756C10.9436 9.0875 11.2059 9.09327 11.2576 9.24953C11.2963 9.36668 11.5472 10.3007 11.8152 11.3251C12.3688 13.4425 12.6527 14.2119 12.8796 14.2119C13.4229 14.2119 14.0025 13.739 14.0004 13.2972C13.9981 12.7754 12.6063 7.10322 12.4001 6.77542C12.1873 6.43664 11.2025 6.54615 10.922 6.93951Z" fill="#7F7F7F" fill-opacity="0.2" style="mix-blend-mode:luminosity"/>
  <path fill-rule="evenodd" clip-rule="evenodd" d="M7.05253 0.0729363C3.49179 0.513039 0.256649 3.96663 0.0206946 7.57983C-0.140399 10.0483 0.639673 12.1217 2.33779 13.7377C2.88096 14.2546 4.42708 15.3199 5.77383 16.1051C8.91155 17.9346 9.54323 18.4848 11.0586 20.7077C12.5769 22.9344 12.832 23.1665 14.3427 23.693C15.7127 24.1707 16.4157 24.1033 17.3642 23.4032C18.1199 22.8454 18.3016 22.5193 18.757 20.9042C19.1613 19.4708 19.1431 19.3775 18.0653 17.3425C16.8546 15.0571 16.8159 14.8558 16.6749 10.1145C16.5508 5.93563 16.5228 5.69035 16.0537 4.69094C14.5432 1.47259 10.8905 -0.401436 7.05253 0.0729363ZM10.922 6.93951C10.6063 7.38259 9.826 7.69232 9.01541 7.69604C8.2522 7.69977 8.01095 7.85305 7.76419 8.49095C7.6554 8.77181 7.37301 9.0767 7.1363 9.16852C6.89977 9.26034 6.42787 9.43764 6.08767 9.56224C5.69082 9.70789 5.42738 9.95373 5.35195 10.2486C5.25283 10.6371 5.45126 10.9245 6.63369 12.1066C7.40315 12.8756 8.61779 14.0052 9.33267 14.6168L10.6326 15.7287L11.0784 15.3171C11.6627 14.7777 11.541 14.5598 9.51518 12.518L7.9268 10.9172L8.64471 10.1679C9.17973 9.60974 9.59516 9.37004 10.275 9.22756C10.9436 9.0875 11.2059 9.09327 11.2576 9.24953C11.2963 9.36668 11.5472 10.3007 11.8152 11.3251C12.3688 13.4425 12.6527 14.2119 12.8796 14.2119C13.4229 14.2119 14.0025 13.739 14.0004 13.2972C13.9981 12.7754 12.6063 7.10322 12.4001 6.77542C12.1873 6.43664 11.2025 6.54615 10.922 6.93951Z" fill="#3D3D3D" fill-opacity="0.5" style="mix-blend-mode:overlay"/>
</svg>