<svg xmlns="http://www.w3.org/2000/svg" width="24" height="24" viewBox="0 0 24 24" fill="none">
  <path fill-rule="evenodd" clip-rule="evenodd" d="M9.05253 0.0729363C5.49179 0.513039 2.25665 3.96663 2.02069 7.57983C1.8596 10.0483 2.63967 12.1217 4.33779 13.7377C4.88096 14.2546 6.42708 15.3199 7.77383 16.1051C10.9116 17.9346 11.5432 18.4848 13.0586 20.7077C14.5769 22.9344 14.832 23.1665 16.3427 23.693C17.7127 24.1707 18.4157 24.1033 19.3642 23.4032C20.1199 22.8454 20.3016 22.5193 20.757 20.9042C21.1613 19.4708 21.1431 19.3775 20.0653 17.3425C18.8546 15.0571 18.8159 14.8558 18.6749 10.1145C18.5508 5.93563 18.5228 5.69035 18.0537 4.69094C16.5432 1.47259 12.8905 -0.401436 9.05253 0.0729363ZM12.922 6.93951C12.6063 7.38259 11.826 7.69232 11.0154 7.69604C10.2522 7.69977 10.0109 7.85305 9.76419 8.49095C9.6554 8.77181 9.37301 9.0767 9.1363 9.16852C8.89977 9.26034 8.42787 9.43764 8.08767 9.56224C7.69082 9.70789 7.42738 9.95373 7.35195 10.2486C7.25283 10.6371 7.45126 10.9245 8.63369 12.1066C9.40315 12.8756 10.6178 14.0052 11.3327 14.6168L12.6326 15.7287L13.0784 15.3171C13.6627 14.7777 13.541 14.5598 11.5152 12.518L9.9268 10.9172L10.6447 10.1679C11.1797 9.60974 11.5952 9.37004 12.275 9.22756C12.9436 9.0875 13.2059 9.09327 13.2576 9.24953C13.2963 9.36668 13.5472 10.3007 13.8152 11.3251C14.3688 13.4425 14.6527 14.2119 14.8796 14.2119C15.4229 14.2119 16.0025 13.739 16.0004 13.2972C15.9981 12.7754 14.6063 7.10322 14.4001 6.77542C14.1873 6.43664 13.2025 6.54615 12.922 6.93951Z" fill="white"/>
</svg>