<svg width="15" height="18" viewBox="0 0 15 18" fill="none" xmlns="http://www.w3.org/2000/svg">
<path fill-rule="evenodd" clip-rule="evenodd" d="M5.2894 0.0547022C2.61884 0.384779 0.192487 2.97497 0.0155209 5.68487C-0.105299 7.53626 0.479755 9.09124 1.75334 10.3033C2.16072 10.6909 3.32031 11.4899 4.33037 12.0788C6.68366 13.451 7.15742 13.8636 8.29399 15.5307C9.43268 17.2008 9.624 17.3749 10.757 17.7698C11.7846 18.1281 12.3118 18.0775 13.0232 17.5524C13.5899 17.1341 13.7262 16.8895 14.0678 15.6781C14.371 14.6031 14.3573 14.5331 13.549 13.0069C12.641 11.2928 12.612 11.1418 12.5062 7.58585C12.4131 4.45172 12.3921 4.26776 12.0403 3.51821C10.9074 1.10444 8.16791 -0.301077 5.2894 0.0547022ZM8.1915 5.20463C7.95469 5.53694 7.3695 5.76924 6.76156 5.77203C6.18915 5.77483 6.00821 5.88979 5.82314 6.36821C5.74155 6.57886 5.52976 6.80752 5.35222 6.87639C5.17483 6.94525 4.8209 7.07823 4.56576 7.17168C4.26811 7.28092 4.07054 7.4653 4.01396 7.68642C3.93962 7.97781 4.08845 8.19334 4.97527 9.07993C5.55236 9.65669 6.46335 10.5039 6.9995 10.9626L7.97445 11.7965L8.30877 11.4878C8.74699 11.0833 8.65573 10.9199 7.13638 9.38849L5.9451 8.18789L6.48353 7.62594C6.8848 7.2073 7.19637 7.02753 7.70623 6.92067C8.2077 6.81562 8.40443 6.81995 8.44323 6.93715C8.47223 7.02501 8.66043 7.72553 8.86142 8.49381C9.27661 10.0819 9.48954 10.6589 9.65968 10.6589C10.0672 10.6589 10.5019 10.3043 10.5003 9.97294C10.4986 9.58154 9.45471 5.32741 9.30006 5.08157C9.14044 4.82748 8.40187 4.90961 8.1915 5.20463Z" fill="#7F7F7F" fill-opacity="0.2" style="mix-blend-mode:luminosity"/>
<path fill-rule="evenodd" clip-rule="evenodd" d="M5.2894 0.0547022C2.61884 0.384779 0.192487 2.97497 0.0155209 5.68487C-0.105299 7.53626 0.479755 9.09124 1.75334 10.3033C2.16072 10.6909 3.32031 11.4899 4.33037 12.0788C6.68366 13.451 7.15742 13.8636 8.29399 15.5307C9.43268 17.2008 9.624 17.3749 10.757 17.7698C11.7846 18.1281 12.3118 18.0775 13.0232 17.5524C13.5899 17.1341 13.7262 16.8895 14.0678 15.6781C14.371 14.6031 14.3573 14.5331 13.549 13.0069C12.641 11.2928 12.612 11.1418 12.5062 7.58585C12.4131 4.45172 12.3921 4.26776 12.0403 3.51821C10.9074 1.10444 8.16791 -0.301077 5.2894 0.0547022ZM8.1915 5.20463C7.95469 5.53694 7.3695 5.76924 6.76156 5.77203C6.18915 5.77483 6.00821 5.88979 5.82314 6.36821C5.74155 6.57886 5.52976 6.80752 5.35222 6.87639C5.17483 6.94525 4.8209 7.07823 4.56576 7.17168C4.26811 7.28092 4.07054 7.4653 4.01396 7.68642C3.93962 7.97781 4.08845 8.19334 4.97527 9.07993C5.55236 9.65669 6.46335 10.5039 6.9995 10.9626L7.97445 11.7965L8.30877 11.4878C8.74699 11.0833 8.65573 10.9199 7.13638 9.38849L5.9451 8.18789L6.48353 7.62594C6.8848 7.2073 7.19637 7.02753 7.70623 6.92067C8.2077 6.81562 8.40443 6.81995 8.44323 6.93715C8.47223 7.02501 8.66043 7.72553 8.86142 8.49381C9.27661 10.0819 9.48954 10.6589 9.65968 10.6589C10.0672 10.6589 10.5019 10.3043 10.5003 9.97294C10.4986 9.58154 9.45471 5.32741 9.30006 5.08157C9.14044 4.82748 8.40187 4.90961 8.1915 5.20463Z" fill="#3D3D3D" fill-opacity="0.5" style="mix-blend-mode:overlay"/>
</svg>
