<svg width="24" height="24" viewBox="0 0 24 24" fill="none" xmlns="http://www.w3.org/2000/svg">
<path d="M10.5338 2.24158C10.9829 0.944761 11.2075 0.296352 11.5396 0.116647C11.827 -0.0388822 12.173 -0.0388822 12.4604 0.116647C12.7925 0.296353 13.0171 0.944762 13.4662 2.24158L15.0668 6.86321C15.1946 7.2323 15.2585 7.41685 15.3737 7.55428C15.4754 7.67568 15.6052 7.7703 15.7517 7.8299C15.9175 7.89737 16.1121 7.90135 16.5014 7.90931L21.3753 8.009C22.743 8.03697 23.4268 8.05096 23.6997 8.3124C23.9359 8.53867 24.0428 8.86901 23.9842 9.1914C23.9166 9.56391 23.3716 9.97864 22.2815 10.8081L18.3967 13.7641C18.0865 14.0002 17.9314 14.1182 17.8367 14.2706C17.7531 14.4052 17.7036 14.5583 17.6924 14.7166C17.6797 14.8957 17.7361 15.0827 17.8488 15.4567L19.2605 20.14C19.6566 21.4541 19.8546 22.1111 19.6912 22.4524C19.5498 22.7478 19.2698 22.9519 18.9462 22.9957C18.5724 23.0462 18.0109 22.6541 16.8881 21.8699L12.8866 19.0752C12.567 18.852 12.4073 18.7404 12.2336 18.6972C12.0802 18.659 11.9198 18.659 11.7664 18.6972C11.5927 18.7404 11.433 18.852 11.1134 19.0752L7.11187 21.8699C5.98906 22.6541 5.42765 23.0462 5.05375 22.9957C4.73016 22.9519 4.45019 22.7478 4.30876 22.4524C4.14536 22.1111 4.34341 21.4541 4.73953 20.14L6.15121 15.4567C6.26395 15.0827 6.32032 14.8957 6.30763 14.7166C6.29642 14.5583 6.24685 14.4052 6.16325 14.2706C6.06861 14.1182 5.91349 14.0002 5.60325 13.7641L1.7185 10.8081C0.628446 9.97864 0.0834199 9.56391 0.0157499 9.1914C-0.0428159 8.86901 0.0641246 8.53867 0.300311 8.3124C0.573212 8.05096 1.25703 8.03697 2.62465 8.009L7.49864 7.90931C7.88788 7.90135 8.0825 7.89737 8.24832 7.8299C8.3948 7.7703 8.52455 7.67568 8.62629 7.55428C8.74146 7.41685 8.80538 7.2323 8.9332 6.86321L10.5338 2.24158Z" fill="white"/>
</svg>
