<svg viewBox="0 0 20 20" fill="none" xmlns="http://www.w3.org/2000/svg">
                                                <path d="M10 0C15.523 0 20 4.477 20 10C20.0021 12.6255 18.9715 15.1464 17.1309 17.0186C15.2902 18.8908 12.7872 19.9641 10.162 20.0066C7.53689 20.0491 5.00034 19.0576 3.1 17.246C1.19966 15.4344 0.0879885 12.9482 0.00500011 10.324L0 10L0.00399995 9.72C0.152 4.327 4.57 0 10 0ZM10.01 13L9.883 13.007C9.63995 13.0359 9.41594 13.153 9.25341 13.336C9.09088 13.519 9.00111 13.7552 9.00111 14C9.00111 14.2448 9.09088 14.481 9.25341 14.664C9.41594 14.847 9.63995 14.9641 9.883 14.993L10 15L10.127 14.993C10.37 14.9641 10.5941 14.847 10.7566 14.664C10.9191 14.481 11.0089 14.2448 11.0089 14C11.0089 13.7552 10.9191 13.519 10.7566 13.336C10.5941 13.153 10.37 13.0359 10.127 13.007L10.01 13ZM10 5C9.75507 5.00003 9.51866 5.08996 9.33563 5.25272C9.15259 5.41547 9.03566 5.63975 9.007 5.883L9 6V10L9.007 10.117C9.03591 10.36 9.15296 10.5841 9.33597 10.7466C9.51897 10.9091 9.75524 10.9989 10 10.9989C10.2448 10.9989 10.481 10.9091 10.664 10.7466C10.847 10.5841 10.9641 10.36 10.993 10.117L11 10V6L10.993 5.883C10.9643 5.63975 10.8474 5.41547 10.6644 5.25272C10.4813 5.08996 10.2449 5.00003 10 5Z" fill="#FFCA00" />
                                            </svg>