<svg viewBox="0 0 20 20" fill="none" xmlns="http://www.w3.org/2000/svg">
                                        <path fill-rule="evenodd" clip-rule="evenodd" d="M15 1.34001C16.5083 2.21087 17.7629 3.46054 18.6398 4.96531C19.5167 6.47009 19.9854 8.17779 19.9994 9.91935C20.0135 11.6609 19.5725 13.376 18.72 14.8947C17.8676 16.4135 16.6332 17.6832 15.1392 18.5783C13.6452 19.4734 11.9434 19.9628 10.2021 19.9981C8.46083 20.0333 6.74055 19.6132 5.21155 18.7793C3.68256 17.9453 2.39787 16.7265 1.48467 15.2435C0.571462 13.7605 0.0614093 12.0647 0.00500011 10.324L0 10L0.00500011 9.67601C0.0610032 7.94901 0.563548 6.26598 1.46364 4.79101C2.36373 3.31604 3.63065 2.09947 5.14089 1.2599C6.65113 0.420327 8.35315 -0.0135887 10.081 0.000452316C11.8089 0.0144933 13.5036 0.476012 15 1.34001ZM7.70711 6.29289C7.31658 5.90237 6.68342 5.90237 6.29289 6.29289C5.90237 6.68342 5.90237 7.31658 6.29289 7.70711L8.58579 10L6.29289 12.2929C5.90237 12.6834 5.90237 13.3166 6.29289 13.7071C6.68342 14.0976 7.31658 14.0976 7.70711 13.7071L10 11.4142L12.2929 13.7071C12.6834 14.0976 13.3166 14.0976 13.7071 13.7071C14.0976 13.3166 14.0976 12.6834 13.7071 12.2929L11.4142 10L13.7071 7.70711C14.0976 7.31658 14.0976 6.68342 13.7071 6.29289C13.3166 5.90237 12.6834 5.90237 12.2929 6.29289L10 8.58579L7.70711 6.29289Z" fill="#FF4D4F" />
                                    </svg>