<svg width="24" height="24" viewBox="0 0 24 24" fill="none" xmlns="http://www.w3.org/2000/svg">
<path fill-rule="evenodd" clip-rule="evenodd" d="M6.58319 3.89317C8.18657 2.82183 10.0716 2.25 12 2.25C12.4142 2.25 12.75 2.58579 12.75 3C12.75 3.41421 12.4142 3.75 12 3.75C10.3683 3.75 8.77326 4.23385 7.41655 5.14038C6.05984 6.0469 5.00242 7.33537 4.378 8.84286C3.75358 10.3504 3.5902 12.0092 3.90853 13.6095C3.98933 14.0157 3.72551 14.4106 3.31925 14.4914C2.913 14.5722 2.51816 14.3084 2.43735 13.9021C2.06114 12.0108 2.25422 10.0504 2.99218 8.26884C3.73013 6.48726 4.97982 4.96452 6.58319 3.89317Z" fill="white"/>
</svg>
